<svg width="342" height="70" viewBox="0 0 342 70" fill="none" xmlns="http://www.w3.org/2000/svg">
<path d="M14.518 15.33L11.492 6.252L8.5 15.33H14.518ZM17.408 24L16.082 19.988H6.936L5.61 24H0.204L8.432 0.709998H14.892L23.086 24H17.408ZM31.3674 24H26.6074V0.709998H31.3674V24ZM45.1132 10.672C42.4272 10.672 40.3532 12.78 40.3532 15.364C40.3532 17.982 42.3592 20.056 45.1132 20.056C47.6632 20.056 49.6692 17.982 49.6692 15.364C49.6692 12.78 47.6632 10.672 45.1132 10.672ZM40.3872 6.558V7.952C40.6932 7.68 42.6652 6.388 45.4872 6.388C50.2472 6.388 54.2932 10.298 54.2932 15.33C54.2932 20.362 50.2472 24.238 45.4872 24.238C42.4952 24.238 40.6932 22.946 40.4212 22.674V29.984H35.6612V6.558H40.3872ZM75.3979 20.26C73.6979 22.81 71.0119 24.408 67.1359 24.408C61.5599 24.408 57.9559 20.498 57.9559 15.33C57.9559 10.298 61.6959 6.218 67.1699 6.218C72.6779 6.218 76.0099 10.026 76.0099 15.092C76.0099 15.772 75.9419 16.656 75.9419 16.758H62.6139C63.1239 18.968 64.7899 20.396 67.2379 20.396C69.3459 20.396 70.8759 19.478 71.8619 18.084L75.3979 20.26ZM67.1359 10.094C64.9259 10.094 63.3959 11.284 62.7839 13.256H71.2499C70.7399 11.148 69.0399 10.094 67.1359 10.094ZM84.6906 6.558V8.326C84.9966 7.952 86.6626 6.252 89.7566 6.252C93.8366 6.252 96.4886 9.074 96.4886 13.29V24H91.7966V14.106C91.7966 12.032 90.6066 10.604 88.6006 10.604C86.2886 10.604 84.7586 12.066 84.7586 14.48V24H80.0326V6.558H84.6906ZM9.35 55.84H3.502V64H1.7V40.71H9.724C14.484 40.71 17.714 44.042 17.714 48.258C17.714 52.61 14.552 55.84 9.35 55.84ZM9.214 42.376H3.502V54.174H9.554C13.532 54.174 15.912 51.556 15.912 48.224C15.912 44.994 13.566 42.376 9.214 42.376ZM24.6306 42.512H22.9646V40.71H24.6306V42.512ZM24.6306 64H22.9646V47H24.6306V64ZM44.3134 59.104L45.6054 59.988C44.0414 62.572 41.5254 64.238 37.7854 64.238C32.7874 64.238 29.2174 60.396 29.2174 55.432C29.2174 50.536 32.7874 46.728 37.7854 46.728C41.6954 46.728 44.0754 48.428 45.6054 51.012L44.3134 51.896C42.9874 49.72 41.0834 48.36 37.7854 48.36C33.6714 48.36 30.8834 51.454 30.8834 55.466C30.8834 59.478 33.7054 62.606 37.8194 62.606C41.1174 62.606 42.9874 61.28 44.3134 59.104ZM51.7031 55.296L59.3531 47H61.3931L53.4711 55.534L62.8891 64H60.5431L51.7031 56.044V64H50.0371V40.71H51.7031V55.296ZM81.2653 64H79.5993V61.416C79.5993 61.416 78.1373 64.272 73.9213 64.272C69.9433 64.272 67.3253 61.586 67.3253 57.404V47H68.9913V57.2C68.9913 60.634 70.8953 62.674 74.0913 62.674C77.4233 62.674 79.5993 60.43 79.5993 56.724V47H81.2653V64ZM95.0433 48.326C91.0313 48.326 87.9373 51.42 87.9373 55.5C87.9373 59.546 91.0313 62.64 95.0433 62.64C99.1233 62.64 102.149 59.512 102.149 55.5C102.149 51.454 99.1233 48.326 95.0433 48.326ZM88.0393 47V50.366C88.0393 50.366 90.0453 46.728 95.1453 46.728C100.007 46.728 103.815 50.536 103.815 55.466C103.815 60.43 100.007 64.238 95.1453 64.238C90.0453 64.238 88.0393 60.634 88.0393 60.634V69.916H86.3733V47H88.0393Z" fill="white"/>
<rect x="122" y="16" width="220" height="1" fill="white"/>
</svg>
