<svg width="99" height="10" viewBox="0 0 99 10" fill="none" xmlns="http://www.w3.org/2000/svg">
<path d="M6.93 9.62109L1.414 1.19309V9.62109H0.7V0.0310929H1.484L7 8.45909V0.0310929H7.714V9.62109H6.93ZM13.1542 0.773093H12.4682V0.0310929H13.1542V0.773093ZM13.1542 9.62109H12.4682V2.62109H13.1542V9.62109ZM17.5629 7.49309H18.2629C18.3889 8.48709 19.1589 9.07509 20.4889 9.07509C21.7769 9.07509 22.4489 8.54309 22.4489 7.70309C22.4489 5.57509 17.8289 7.18509 17.8289 4.44109C17.8289 3.29309 18.7949 2.50909 20.2929 2.50909C21.8469 2.50909 22.8409 3.32109 22.9249 4.58109H22.2389C22.1689 3.85309 21.5809 3.15309 20.2789 3.15309C19.1729 3.15309 18.5289 3.65709 18.5289 4.41309C18.5289 6.47109 23.1349 4.88909 23.1349 7.67509C23.1349 8.86509 22.1549 9.73309 20.4749 9.73309C18.7809 9.73309 17.7309 8.96309 17.5629 7.49309ZM28.2343 0.0310929V3.68509C28.2343 3.68509 28.8363 2.50909 30.5723 2.50909C32.2103 2.50909 33.2883 3.61509 33.2883 5.33709V9.62109H32.6023V5.42109C32.6023 4.00709 31.8183 3.16709 30.5023 3.16709C29.1303 3.16709 28.2343 4.09109 28.2343 5.61709V9.62109H27.5483V0.0310929H28.2343ZM38.5976 0.773093H37.9116V0.0310929H38.5976V0.773093ZM38.5976 9.62109H37.9116V2.62109H38.5976V9.62109ZM56.015 9.62109V5.18309H50.401V9.62109H49.659V0.0310929H50.401V4.49709H56.015V0.0310929H56.757V9.62109H56.015ZM62.2089 0.773093H61.5229V0.0310929H62.2089V0.773093ZM62.2089 9.62109H61.5229V2.62109H62.2089V9.62109ZM69.8516 2.50909V3.26509C68.5076 3.26509 67.5136 4.28709 67.5136 5.81309V9.62109H66.8276V2.62109H67.5136V3.92309C67.5136 3.92309 68.1576 2.50909 69.8516 2.50909ZM77.1065 2.50909C79.1365 2.50909 80.7045 4.07709 80.7045 6.10709C80.7045 8.15109 79.1365 9.71909 77.1065 9.71909C75.0625 9.71909 73.4945 8.15109 73.4945 6.10709C73.4945 4.07709 75.0625 2.50909 77.1065 2.50909ZM77.1065 3.16709C75.4265 3.16709 74.1805 4.45509 74.1805 6.12109C74.1805 7.77309 75.4265 9.06109 77.1065 9.06109C78.7725 9.06109 80.0185 7.77309 80.0185 6.12109C80.0185 4.45509 78.7725 3.16709 77.1065 3.16709ZM86.1387 2.62109H88.0847V3.23709H86.1387V7.49309C86.1387 8.66909 86.9087 8.96309 87.5387 8.96309H88.0707V9.62109H87.5247C86.5727 9.62109 85.4667 9.08909 85.4667 7.49309V3.23709H84.4167V2.62109H85.4667V0.591093H86.1387V2.62109ZM95.3311 2.50909C97.3611 2.50909 98.9291 4.07709 98.9291 6.10709C98.9291 8.15109 97.3611 9.71909 95.3311 9.71909C93.2871 9.71909 91.7191 8.15109 91.7191 6.10709C91.7191 4.07709 93.2871 2.50909 95.3311 2.50909ZM95.3311 3.16709C93.6511 3.16709 92.4051 4.45509 92.4051 6.12109C92.4051 7.77309 93.6511 9.06109 95.3311 9.06109C96.9971 9.06109 98.2431 7.77309 98.2431 6.12109C98.2431 4.45509 96.9971 3.16709 95.3311 3.16709Z" fill="#9E9E9E"/>
</svg>
