<?xml version="1.0" encoding="UTF-8"?><svg id="_レイヤー_2" xmlns="http://www.w3.org/2000/svg" viewBox="0 0 245 407.9"><defs><style>.cls-1{fill:#fff;stroke-width:0px;}</style></defs><g id="_レイヤー_1-2"><polygon class="cls-1" points="106.7 268.2 71.4 232.9 71.4 212.3 71.4 29.4 106.7 64.6 106.7 156.9 118.8 144.7 118.8 59.6 59.2 0 59.2 212.3 0 153 0 178.7 118.8 297.5 118.8 212.7 106.7 200.5 106.7 268.2"/><polygon class="cls-1" points="126.2 67 126.2 144.7 138.3 156.9 138.3 96.3 173.6 131.6 173.6 152.2 173.6 335.1 138.3 299.9 138.3 200.5 126.2 212.7 126.2 304.9 185.8 364.5 185.8 152.2 245 211.5 245 185.8 126.2 67"/><rect class="cls-1" x="105.4" y="161.7" width="33.9" height="33.9" transform="translate(-90.5 138.9) rotate(-45)"/><path class="cls-1" d="M82.8,407.9c.8,0,1.6,0,2.3-.2,2.8-.5,5.4-2.4,7-4.8.7-1.1,1.2-2.3,1.5-3.5.5-1.6.7-3.9.7-7v-26.2h-8.3v26.2c0,1.3,0,2.6-.2,3.8-.1,1-.4,2.2-1.1,2.9-1.6,1.6-3.9.7-5.6-.2l-1.5-.9-5.7,5.7c1.3.9,2.7,1.8,4.1,2.6,2.1,1.1,4.6,1.6,7,1.6"/><path class="cls-1" d="M107.2,402.4c4.2,3.6,9,5.5,14.3,5.5s11.2-2.1,15.4-6.2c4.2-4.1,6.4-9.1,6.4-15s-2.1-10.9-6.3-15c-4.2-4.1-9.3-6.3-15.1-6.3s-11.1,2.1-15.3,6.2c-4.3,4.1-6.4,9.1-6.4,14.9s2.4,11.9,7,15.9M112.6,377.2c2.6-2.6,5.7-3.8,9.4-3.8s6.8,1.3,9.4,3.8c2.6,2.6,3.8,5.7,3.8,9.5s-1.3,6.9-3.9,9.5c-2.6,2.6-5.7,3.8-9.5,3.8s-6.5-1.2-9.1-3.8c-2.7-2.5-4-5.7-4-9.6s1.3-6.8,3.8-9.4"/><polygon class="cls-1" points="151.7 407.2 160 407.2 160 366.2 151.9 366.2 144 374 151.7 374 151.7 407.2"/></g></svg>