<svg width="342" height="59" viewBox="0 0 342 59" fill="none" xmlns="http://www.w3.org/2000/svg">
<path d="M14.586 24L6.698 14.072V24H1.428V0.709998H6.698V11.556L14.994 0.709998H21.148L11.9 12.338L21.42 24H14.586ZM38.5464 15.33L35.5204 6.252L32.5284 15.33H38.5464ZM41.4364 24L40.1104 19.988H30.9644L29.6384 24H24.2324L32.4604 0.709998H38.9204L47.1144 24H41.4364ZM66.6291 24L62.5491 9.652L58.5371 24H52.2811L46.6031 0.709998H52.1451L55.7151 17.404L60.3731 0.709998H65.0311L69.6551 17.574L73.3611 0.709998H78.5971L72.9191 24H66.6291ZM92.4139 15.33L89.3879 6.252L86.3959 15.33H92.4139ZM95.3039 24L93.9779 19.988H84.8319L83.5059 24H78.0999L86.3279 0.709998H92.7879L100.982 24H95.3039ZM112.815 24.476C106.933 24.476 103.669 21.552 103.363 16.724H108.667C108.769 18.492 109.789 20.26 112.951 20.26C115.637 20.26 116.997 19.206 116.997 17.744C116.997 15.942 114.719 15.466 112.033 14.888C108.327 14.004 103.771 12.882 103.771 7.34C103.771 3.226 106.967 0.165999 112.543 0.165999C118.255 0.165999 121.417 3.294 121.757 7.884H116.419C116.317 5.98 115.297 4.484 112.407 4.484C110.299 4.484 108.905 5.334 108.905 6.864C108.905 8.87 111.217 9.414 113.903 10.026C117.711 10.876 122.301 11.828 122.301 17.098C122.301 21.382 118.935 24.476 112.815 24.476ZM141.913 24V14.888H132.053V24H126.783V0.709998H132.053V10.06H141.913V0.709998H147.183V24H141.913ZM157.675 24H152.405V0.709998H157.675V24ZM172.033 5.538H168.157V11.76H171.863C174.141 11.76 175.535 10.468 175.535 8.666C175.535 6.864 174.379 5.538 172.033 5.538ZM175.025 24L168.191 16.112H168.157V24H162.887V0.709998H172.815C177.779 0.709998 180.839 3.906 180.839 8.462C180.839 12.1 178.425 15.126 174.481 15.908L181.893 24H175.025ZM191.455 24H186.185V0.709998H191.455V24ZM8.942 37.376H3.502V48.188H8.772C13.226 48.188 15.402 45.808 15.402 42.816C15.402 39.756 13.192 37.376 8.942 37.376ZM3.502 49.786V59H1.7V35.71H9.35C14.246 35.71 17.204 38.736 17.204 42.782C17.204 46.692 14.076 49.786 9.452 49.786H6.052L17.612 59H14.926L3.502 49.786ZM21.7441 59V35.71H35.7181V37.376H23.5461V46.386H34.8681V48.052H23.5461V57.334H36.3981V59H21.7441ZM56.1877 59L42.7917 38.532V59H41.0577V35.71H42.9617L56.3577 56.178V35.71H58.0917V59H56.1877Z" fill="white"/>
<rect x="212" y="13" width="130" height="1" fill="white"/>
</svg>
