<svg width="342" height="60" viewBox="0 0 342 60" fill="none" xmlns="http://www.w3.org/2000/svg">
<path d="M14.586 24L6.698 14.072V24H1.428V0.709998H6.698V11.556L14.994 0.709998H21.148L11.9 12.338L21.42 24H14.586ZM38.5464 15.33L35.5204 6.252L32.5284 15.33H38.5464ZM41.4364 24L40.1104 19.988H30.9644L29.6384 24H24.2324L32.4604 0.709998H38.9204L47.1144 24H41.4364ZM66.6291 24L62.5491 9.652L58.5371 24H52.2811L46.6031 0.709998H52.1451L55.7151 17.404L60.3731 0.709998H65.0311L69.6551 17.574L73.3611 0.709998H78.5971L72.9191 24H66.6291ZM92.4139 15.33L89.3879 6.252L86.3959 15.33H92.4139ZM95.3039 24L93.9779 19.988H84.8319L83.5059 24H78.0999L86.3279 0.709998H92.7879L100.982 24H95.3039ZM119.429 24L110.045 9.244V24H104.979V0.709998H110.725L120.109 15.5V0.709998H125.175V24H119.429ZM135.672 24H130.402V0.709998H135.672V24ZM149.384 24.476C143.502 24.476 140.238 21.552 139.932 16.724H145.236C145.338 18.492 146.358 20.26 149.52 20.26C152.206 20.26 153.566 19.206 153.566 17.744C153.566 15.942 151.288 15.466 148.602 14.888C144.896 14.004 140.34 12.882 140.34 7.34C140.34 3.226 143.536 0.165999 149.112 0.165999C154.824 0.165999 157.986 3.294 158.326 7.884H152.988C152.886 5.98 151.866 4.484 148.976 4.484C146.868 4.484 145.474 5.334 145.474 6.864C145.474 8.87 147.786 9.414 150.472 10.026C154.28 10.876 158.87 11.828 158.87 17.098C158.87 21.382 155.504 24.476 149.384 24.476ZM178.482 24V14.888H168.622V24H163.352V0.709998H168.622V10.06H178.482V0.709998H183.752V24H178.482ZM194.244 24H188.974V0.709998H194.244V24ZM9.894 59H8.092V37.376H0.51V35.71H17.476V37.376H9.894V59ZM30.8348 51.146L25.7008 38.056L20.5328 51.146H30.8348ZM33.9288 59L31.5148 52.846H19.8528L17.4388 59H15.6028L24.8168 35.71H26.6188L35.8668 59H33.9288ZM42.266 47.032L53.758 35.71H56.036L44.204 47.304L56.444 59H53.928L42.266 47.848V59H40.464V35.71H42.266V47.032ZM69.0816 59.34C63.6416 59.34 60.1396 55.736 60.1396 50.024V35.71H61.9416V49.854C61.9416 54.784 64.5936 57.64 69.0816 57.64C73.5696 57.64 76.2216 54.784 76.2216 49.854V35.71H78.0236V50.024C78.0236 55.736 74.5216 59.34 69.0816 59.34ZM94.2392 59L85.5352 39.314V59H83.8352V35.71H85.8752L94.7832 56.246L103.657 35.71H105.697V59H103.963V39.246L95.2592 59H94.2392ZM113.285 59H111.483V35.71H113.285V59Z" fill="white"/>
<rect x="212" y="13" width="130" height="1" fill="white"/>
</svg>
