<svg width="342" height="60" viewBox="0 0 342 60" fill="none" xmlns="http://www.w3.org/2000/svg">
<path d="M14.586 24L6.698 14.072V24H1.428V0.709998H6.698V11.556L14.994 0.709998H21.148L11.9 12.338L21.42 24H14.586ZM30.3944 24H25.1244V0.709998H30.3944V24ZM46.962 24L40.672 10.094V24H35.606V0.709998H41.93L48.764 16.112L55.598 0.709998H61.922V24H56.754V10.026L50.43 24H46.962ZM80.2615 15.33L77.2355 6.252L74.2435 15.33H80.2615ZM83.1515 24L81.8255 19.988H72.6795L71.3535 24H65.9475L74.1755 0.709998H80.6355L88.8295 24H83.1515ZM100.197 24H94.9269V5.538H87.9909V0.709998H107.133V5.538H100.197V24ZM120.615 15.33L117.589 6.252L114.597 15.33H120.615ZM123.505 24L122.179 19.988H113.033L111.707 24H106.301L114.529 0.709998H120.989L129.183 24H123.505ZM9.996 59.34C4.556 59.34 1.224 56.926 0.646 52.03H2.448C2.89 55.702 5.61 57.708 9.996 57.674C14.348 57.674 16.66 55.77 16.66 52.676C16.66 45.434 1.666 50.806 1.666 41.694C1.666 37.988 4.726 35.506 9.384 35.506C14.348 35.506 17.51 38.124 17.782 42.204H16.014C15.742 39.586 13.634 37.172 9.282 37.172C5.542 37.172 3.4 39.076 3.4 41.728C3.4 48.834 18.462 43.462 18.462 52.744C18.462 56.382 15.81 59.34 9.996 59.34ZM30.0924 59H28.2904V48.63L19.9604 35.71H22.1024L29.2084 46.998L36.3144 35.71H38.4224L30.0924 48.562V59ZM51.314 59.272C44.786 59.272 39.448 54.24 39.448 47.338C39.448 40.436 44.786 35.438 51.314 35.438C57.842 35.438 63.18 40.436 63.18 47.338C63.18 54.24 57.842 59.272 51.314 59.272ZM51.314 57.572C56.958 57.572 61.378 53.186 61.378 47.338C61.378 41.49 56.958 37.172 51.314 37.172C45.67 37.172 41.25 41.49 41.25 47.338C41.25 53.186 45.67 57.572 51.314 57.572ZM74.3309 59H72.5289V48.63L64.1989 35.71H66.3409L73.4469 46.998L80.5529 35.71H82.6609L74.3309 48.562V59ZM95.8479 51.146L90.7139 38.056L85.5459 51.146H95.8479ZM98.9419 59L96.5279 52.846H84.8659L82.4519 59H80.6159L89.8299 35.71H91.6319L100.88 59H98.9419Z" fill="white"/>
<rect x="147" y="13" width="195" height="1" fill="white"/>
</svg>
