<svg width="342" height="60" viewBox="0 0 342 60" fill="none" xmlns="http://www.w3.org/2000/svg">
<path d="M14.586 24L6.698 14.072V24H1.428V0.709998H6.698V11.556L14.994 0.709998H21.148L11.9 12.338L21.42 24H14.586ZM30.3944 24H25.1244V0.709998H30.3944V24ZM50.056 24L40.672 9.244V24H35.606V0.709998H41.352L50.736 15.5V0.709998H55.802V24H50.056ZM60.4509 15.67H65.7209C65.7209 18.356 67.0129 19.512 69.1549 19.512C71.3309 19.512 72.5889 17.914 72.5889 15.466V0.709998H77.8589V15.466C77.8589 20.804 74.7989 24.408 69.1889 24.408C63.7829 24.408 60.4169 21.246 60.4509 15.67ZM94.7636 24.476C87.9636 24.476 82.4216 19.274 82.4216 12.372C82.4216 5.436 87.9636 0.233998 94.7636 0.233998C101.734 0.233998 107.106 5.436 107.106 12.338C107.106 19.274 101.734 24.476 94.7636 24.476ZM94.7636 19.58C98.7076 19.58 101.734 16.452 101.734 12.338C101.734 8.292 98.7076 5.13 94.7636 5.13C90.8196 5.13 87.7936 8.292 87.7936 12.372C87.7936 16.452 90.8196 19.58 94.7636 19.58ZM9.996 59.34C4.556 59.34 1.224 56.926 0.646 52.03H2.448C2.89 55.702 5.61 57.708 9.996 57.674C14.348 57.674 16.66 55.77 16.66 52.676C16.66 45.434 1.666 50.806 1.666 41.694C1.666 37.988 4.726 35.506 9.384 35.506C14.348 35.506 17.51 38.124 17.782 42.204H16.014C15.742 39.586 13.634 37.172 9.282 37.172C5.542 37.172 3.4 39.076 3.4 41.728C3.4 48.834 18.462 43.462 18.462 52.744C18.462 56.382 15.81 59.34 9.996 59.34ZM32.347 59.34C26.907 59.34 23.405 55.736 23.405 50.024V35.71H25.207V49.854C25.207 54.784 27.859 57.64 32.347 57.64C36.835 57.64 39.487 54.784 39.487 49.854V35.71H41.289V50.024C41.289 55.736 37.787 59.34 32.347 59.34ZM49.0726 47.032L60.5646 35.71H62.8426L51.0106 47.304L63.2506 59H60.7346L49.0726 47.848V59H47.2706V35.71H49.0726V47.032ZM81.4483 51.146L76.3143 38.056L71.1463 51.146H81.4483ZM84.5423 59L82.1283 52.846H70.4663L68.0523 59H66.2163L75.4303 35.71H77.2323L86.4803 59H84.5423ZM92.7095 59H90.9075V35.71H92.7095V59Z" fill="white"/>
<rect x="132" y="13" width="210" height="1" fill="white"/>
</svg>
