<svg width="342" height="57" viewBox="0 0 342 57" fill="none" xmlns="http://www.w3.org/2000/svg">
<path d="M11.28 21L5.73 8.73V21H1.26V0.449998H6.84L12.87 14.04L18.9 0.449998H24.48V21H19.92V8.67L14.34 21H11.28ZM40.662 13.35L37.992 5.34L35.352 13.35H40.662ZM43.212 21L42.042 17.46H33.972L32.802 21H28.032L35.292 0.449998H40.992L48.222 21H43.212ZM61.7691 21L56.2191 8.73V21H51.7491V0.449998H57.3291L63.3591 14.04L69.3891 0.449998H74.9691V21H70.4091V8.67L64.8291 21H61.7691ZM79.601 21V0.449998H94.631V4.65H84.251V8.52H93.851V12.6H84.251V16.8H94.661V21H79.601ZM112.19 21V12.96H103.49V21H98.8397V0.449998H103.49V8.7H112.19V0.449998H116.84V21H112.19ZM132.998 13.35L130.328 5.34L127.688 13.35H132.998ZM135.548 21L134.378 17.46H126.308L125.138 21H120.368L127.628 0.449998H133.328L140.558 21H135.548ZM152.155 4.71H148.735V10.2H152.005C154.015 10.2 155.245 9.06 155.245 7.47C155.245 5.88 154.225 4.71 152.155 4.71ZM154.795 21L148.765 14.04H148.735V21H144.085V0.449998H152.845C157.225 0.449998 159.925 3.27 159.925 7.29C159.925 10.5 157.795 13.17 154.315 13.86L160.855 21H154.795ZM176.192 13.35L173.522 5.34L170.882 13.35H176.192ZM178.742 21L177.572 17.46H169.502L168.332 21H163.562L170.822 0.449998H176.522L183.752 21H178.742ZM197.127 21H195.537V0.449998H197.127V21ZM209.556 21.3C204.756 21.3 201.816 19.17 201.306 14.85H202.896C203.286 18.09 205.686 19.86 209.556 19.83C213.396 19.83 215.436 18.15 215.436 15.42C215.436 9.03 202.206 13.77 202.206 5.73C202.206 2.46 204.906 0.269999 209.016 0.269999C213.396 0.269999 216.186 2.58 216.426 6.18H214.866C214.626 3.87 212.766 1.74 208.926 1.74C205.626 1.74 203.736 3.42 203.736 5.76C203.736 12.03 217.026 7.29 217.026 15.48C217.026 18.69 214.686 21.3 209.556 21.3ZM228.678 21.3C223.878 21.3 220.938 19.17 220.428 14.85H222.018C222.408 18.09 224.808 19.86 228.678 19.83C232.518 19.83 234.558 18.15 234.558 15.42C234.558 9.03 221.328 13.77 221.328 5.73C221.328 2.46 224.028 0.269999 228.138 0.269999C232.518 0.269999 235.308 2.58 235.548 6.18H233.988C233.748 3.87 231.888 1.74 228.048 1.74C224.748 1.74 222.858 3.42 222.858 5.76C222.858 12.03 236.148 7.29 236.148 15.48C236.148 18.69 233.808 21.3 228.678 21.3ZM240.772 21V0.449998H253.102V1.92H242.362V9.87H252.352V11.34H242.362V19.53H253.702V21H240.772ZM259.404 21H257.814V0.449998H259.404V21ZM282.729 8.34L278.709 12.42L282.729 16.5L281.799 17.49L277.749 13.41L273.669 17.49L272.709 16.53L276.789 12.42L272.739 8.37L273.669 7.38L277.749 11.46L281.739 7.38L282.729 8.34ZM12.87 56L5.91 47.24V56H1.26V35.45H5.91V45.02L13.23 35.45H18.66L10.5 45.71L18.9 56H12.87ZM34.0116 48.35L31.3416 40.34L28.7016 48.35H34.0116ZM36.5616 56L35.3916 52.46H27.3216L26.1516 56H21.3816L28.6416 35.45H34.3416L41.5716 56H36.5616ZM58.7904 56L55.1904 43.34L51.6504 56H46.1304L41.1204 35.45H46.0104L49.1604 50.18L53.2704 35.45H57.3804L61.4604 50.33L64.7304 35.45H69.3504L64.3404 56H58.7904ZM81.5416 48.35L78.8716 40.34L76.2316 48.35H81.5416ZM84.0916 56L82.9216 52.46H74.8516L73.6816 56H68.9116L76.1716 35.45H81.8716L89.1016 56H84.0916ZM105.379 56L97.0988 42.98V56H92.6288V35.45H97.6988L105.979 48.5V35.45H110.449V56H105.379ZM119.711 56H115.061V35.45H119.711V56ZM131.809 56.42C126.619 56.42 123.739 53.84 123.469 49.58H128.149C128.239 51.14 129.139 52.7 131.929 52.7C134.299 52.7 135.499 51.77 135.499 50.48C135.499 48.89 133.489 48.47 131.119 47.96C127.849 47.18 123.829 46.19 123.829 41.3C123.829 37.67 126.649 34.97 131.569 34.97C136.609 34.97 139.399 37.73 139.699 41.78H134.989C134.899 40.1 133.999 38.78 131.449 38.78C129.589 38.78 128.359 39.53 128.359 40.88C128.359 42.65 130.399 43.13 132.769 43.67C136.129 44.42 140.179 45.26 140.179 49.91C140.179 53.69 137.209 56.42 131.809 56.42ZM157.484 56V47.96H148.784V56H144.134V35.45H148.784V43.7H157.484V35.45H162.134V56H157.484ZM171.392 56H166.742V35.45H171.392V56ZM191.478 56H189.888V36.92H183.198V35.45H198.168V36.92H191.478V56ZM209.955 49.07L205.425 37.52L200.865 49.07H209.955ZM212.685 56L210.555 50.57H200.265L198.135 56H196.515L204.645 35.45H206.235L214.395 56H212.685ZM220.042 45.44L230.182 35.45H232.192L221.752 45.68L232.552 56H230.332L220.042 46.16V56H218.452V35.45H220.042V45.44ZM243.702 56.3C238.902 56.3 235.812 53.12 235.812 48.08V35.45H237.402V47.93C237.402 52.28 239.742 54.8 243.702 54.8C247.662 54.8 250.002 52.28 250.002 47.93V35.45H251.592V48.08C251.592 53.12 248.502 56.3 243.702 56.3ZM265.9 56L258.22 38.63V56H256.72V35.45H258.52L266.38 53.57L274.21 35.45H276.01V56H274.48V38.57L266.8 56H265.9ZM282.705 56H281.115V35.45H282.705V56Z" fill="white"/>
<rect x="298" y="11" width="44" height="1" fill="white"/>
</svg>
